<svg xmlns="http://www.w3.org/2000/svg" xmlns:xlink="http://www.w3.org/1999/xlink" width="221" height="65.479" viewBox="0 0 221 65.479">
  <defs>
    <linearGradient id="linear-gradient" x1="0.915" y1="8.641" x2="-0.383" y2="7.971" gradientUnits="objectBoundingBox">
      <stop offset="0" stop-color="#00a0ff"/>
      <stop offset="0.007" stop-color="#00a1ff"/>
      <stop offset="0.26" stop-color="#00beff"/>
      <stop offset="0.512" stop-color="#00d2ff"/>
      <stop offset="0.76" stop-color="#00dfff"/>
      <stop offset="1" stop-color="#00e3ff"/>
    </linearGradient>
    <linearGradient id="linear-gradient-2" x1="1.076" y1="23.039" x2="-1.305" y2="23.039" gradientUnits="objectBoundingBox">
      <stop offset="0" stop-color="#ffe000"/>
      <stop offset="0.409" stop-color="#ffbd00"/>
      <stop offset="0.775" stop-color="orange"/>
      <stop offset="1" stop-color="#ff9c00"/>
    </linearGradient>
    <linearGradient id="linear-gradient-3" x1="0.862" y1="14.814" x2="-0.501" y2="13.044" gradientUnits="objectBoundingBox">
      <stop offset="0" stop-color="#ff3a44"/>
      <stop offset="1" stop-color="#c31162"/>
    </linearGradient>
    <linearGradient id="linear-gradient-4" x1="-0.188" y1="17.533" x2="0.421" y2="16.743" gradientUnits="objectBoundingBox">
      <stop offset="0" stop-color="#32a071"/>
      <stop offset="0.068" stop-color="#2da771"/>
      <stop offset="0.476" stop-color="#15cf74"/>
      <stop offset="0.801" stop-color="#06e775"/>
      <stop offset="1" stop-color="#00f076"/>
    </linearGradient>
  </defs>
  <g id="Group_22276" data-name="Group 22276" transform="translate(-199.893 -254.598)">
    <rect id="Rectangle_17820" data-name="Rectangle 17820" width="221" height="65" rx="5" transform="translate(199.893 254.598)"/>
    <g id="Group_22272" data-name="Group 22272" transform="translate(199.893 254.598)">
      <g id="Group_22271" data-name="Group 22271">
        <path id="Path_10486" data-name="Path 10486" d="M412.7,255.908a6.883,6.883,0,0,1,6.875,6.875v49.109a6.883,6.883,0,0,1-6.875,6.875H208.078a6.883,6.883,0,0,1-6.875-6.875V262.783a6.883,6.883,0,0,1,6.875-6.875H412.7m0-1.31H208.078a8.209,8.209,0,0,0-8.185,8.185v49.109a8.209,8.209,0,0,0,8.185,8.185H412.7a8.209,8.209,0,0,0,8.185-8.185V262.783A8.209,8.209,0,0,0,412.7,254.6Z" transform="translate(-199.893 -254.598)" fill="#a6a6a6"/>
      </g>
    </g>
    <path id="Path_10487" data-name="Path 10487" d="M285.287,279.345a6.963,6.963,0,1,0,6.988,6.964A6.863,6.863,0,0,0,285.287,279.345Zm0,11.182a4.23,4.23,0,1,1,3.93-4.218A4.026,4.026,0,0,1,285.287,290.527Zm-15.245-11.182a6.963,6.963,0,1,0,6.988,6.964A6.865,6.865,0,0,0,270.042,279.345Zm0,11.182a4.23,4.23,0,1,1,3.929-4.218A4.028,4.028,0,0,1,270.042,290.527Zm-18.136-9.046v2.955h7.068a6.164,6.164,0,0,1-1.609,3.717,7.23,7.23,0,0,1-5.459,2.162,7.859,7.859,0,0,1,0-15.716,7.529,7.529,0,0,1,5.327,2.108l2.084-2.082a10.3,10.3,0,0,0-7.411-2.981,10.814,10.814,0,1,0,0,21.626,9.89,9.89,0,0,0,7.543-3.033,10.673,10.673,0,0,0,2.4-8.756Zm74.167,2.3a6.47,6.47,0,0,0-5.96-4.431,6.617,6.617,0,0,0-6.566,6.964,6.813,6.813,0,0,0,6.91,6.962,6.924,6.924,0,0,0,5.8-3.086l-2.374-1.583a3.975,3.975,0,0,1-3.428,1.925,3.54,3.54,0,0,1-3.375-2.11l9.309-3.85ZM316.58,286.1a3.816,3.816,0,0,1,3.639-4.061,2.7,2.7,0,0,1,2.585,1.476Zm-7.569,6.751h3.059V272.383h-3.059ZM304,280.9h-.106a4.826,4.826,0,0,0-3.665-1.557,6.969,6.969,0,0,0,0,13.926,4.743,4.743,0,0,0,3.665-1.583H304v1c0,2.665-1.424,4.087-3.719,4.087a3.847,3.847,0,0,1-3.506-2.478l-2.665,1.108a6.639,6.639,0,0,0,6.171,4.114c3.587,0,6.62-2.11,6.62-7.252v-12.5H304Zm-3.508,9.625a4.234,4.234,0,0,1,0-8.438c2.084,0,3.719,1.792,3.719,4.246A3.89,3.89,0,0,1,300.492,290.527ZM340.4,272.385h-7.319v20.464h3.055V285.1H340.4a6.365,6.365,0,1,0,0-12.711Zm.079,9.863h-4.343v-7.016h4.343a3.509,3.509,0,1,1,0,7.016Zm18.877-2.94a5.736,5.736,0,0,0-5.449,3.133l2.711,1.133a2.9,2.9,0,0,1,2.791-1.5c1.58,0,3.185.948,3.212,2.632v.211a6.75,6.75,0,0,0-3.186-.789c-2.922,0-5.9,1.606-5.9,4.606,0,2.739,2.395,4.5,5.081,4.5a4.306,4.306,0,0,0,3.9-2h.1v1.58h2.95v-7.846C365.573,281.336,362.86,279.308,359.359,279.308Zm-.368,11.216c-1,0-2.4-.5-2.4-1.738,0-1.58,1.738-2.185,3.24-2.185a5.421,5.421,0,0,1,2.789.686A3.7,3.7,0,0,1,358.991,290.524Zm17.324-10.768-3.5,8.872h-.106l-3.632-8.872h-3.292l5.451,12.4-3.107,6.9h3.185l8.4-19.3ZM348.8,292.848h3.053V272.385H348.8Z" transform="translate(26.142 10.858)" fill="#fff"/>
    <g id="Group_22274" data-name="Group 22274" transform="translate(216.219 266.287)">
      <path id="Path_10488" data-name="Path 10488" d="M210.624,262.183a3.278,3.278,0,0,0-.758,2.3v36.2a3.275,3.275,0,0,0,.758,2.3l.121.118,20.28-20.28v-.478l-20.28-20.282Z" transform="translate(-209.866 -261.532)" fill="url(#linear-gradient)"/>
      <path id="Path_10489" data-name="Path 10489" d="M229.551,284.325l-6.759-6.762v-.478l6.761-6.762.152.087,8.01,4.551c2.288,1.3,2.288,3.428,0,4.728l-8.01,4.551Z" transform="translate(-201.633 -256.271)" fill="url(#linear-gradient-2)"/>
      <path id="Path_10490" data-name="Path 10490" d="M237.643,281.513,230.73,274.6l-20.4,20.4c.753.8,2,.9,3.4.1l23.913-13.587" transform="translate(-209.571 -253.547)" fill="url(#linear-gradient-3)"/>
      <path id="Path_10491" data-name="Path 10491" d="M237.643,275.876l-23.913-13.588c-1.4-.8-2.649-.7-3.4.1l20.4,20.4Z" transform="translate(-209.571 -261.738)" fill="url(#linear-gradient-4)"/>
      <g id="Group_22273" data-name="Group 22273" transform="translate(0 27.815)">
        <path id="Path_10492" data-name="Path 10492" d="M237.491,278.73l-23.76,13.5c-1.329.755-2.518.706-3.28.018h0l-.121.121h0l.121.118h0c.763.688,1.951.738,3.28-.018l23.913-13.587Z" transform="translate(-209.571 -278.73)" opacity="0.2" style="isolation: isolate"/>
        <path id="Path_10493" data-name="Path 10493" d="M210.624,287.811a3.278,3.278,0,0,1-.758-2.3v.239a3.275,3.275,0,0,0,.758,2.3l.121-.121Z" transform="translate(-209.866 -274.411)" opacity="0.12" style="isolation: isolate"/>
      </g>
      <path id="Path_10494" data-name="Path 10494" d="M235.084,276.724l-8.162,4.638.152.152,8.01-4.551A2.872,2.872,0,0,0,236.8,274.6h0A3.049,3.049,0,0,1,235.084,276.724Z" transform="translate(-199.002 -253.547)" opacity="0.12" style="isolation: isolate"/>
      <path id="Path_10495" data-name="Path 10495" d="M214.026,262.528l31.922,18.137a3.046,3.046,0,0,1,1.716,2.125h0a2.869,2.869,0,0,0-1.716-2.364l-31.922-18.137c-2.288-1.3-4.16-.221-4.16,2.4v.239C209.866,262.309,211.737,261.229,214.026,262.528Z" transform="translate(-209.866 -261.738)" fill="#fff" opacity="0.25" style="isolation: isolate"/>
    </g>
    <g id="Group_22275" data-name="Group 22275" transform="translate(267.465 265.837)">
      <path id="Path_10496" data-name="Path 10496" d="M241.172,271.42V261.6h3a4.881,4.881,0,0,1,3.621,1.365,5.306,5.306,0,0,1,0,7.091,4.881,4.881,0,0,1-3.621,1.365Zm1.26-1.206h1.743a3.684,3.684,0,0,0,2.694-.976,3.711,3.711,0,0,0-2.694-6.433h-1.743Z" transform="translate(-241.172 -261.379)" fill="#fff" stroke="#fff" stroke-miterlimit="10" stroke-width="0.2"/>
      <path id="Path_10497" data-name="Path 10497" d="M247.131,271.42V261.6h1.26v9.822Z" transform="translate(-237.376 -261.379)" fill="#fff" stroke="#fff" stroke-miterlimit="10" stroke-width="0.2"/>
      <path id="Path_10498" data-name="Path 10498" d="M252.3,271.724a3.66,3.66,0,0,1-2.09-.7,3.235,3.235,0,0,1-1.337-1.963l1.152-.466a2.635,2.635,0,0,0,.841,1.365,2.133,2.133,0,0,0,1.434.555,2.309,2.309,0,0,0,1.408-.431,1.384,1.384,0,0,0,.581-1.174,1.5,1.5,0,0,0-.581-1.269,5.979,5.979,0,0,0-1.845-.83,4.913,4.913,0,0,1-1.976-1.064,2.216,2.216,0,0,1-.673-1.666,2.439,2.439,0,0,1,.836-1.837,3.065,3.065,0,0,1,2.18-.782,3.16,3.16,0,0,1,2.031.624,2.89,2.89,0,0,1,1.015,1.365l-1.151.48a1.707,1.707,0,0,0-.611-.864,2.145,2.145,0,0,0-2.5.007,1.235,1.235,0,0,0-.514,1.008,1.143,1.143,0,0,0,.473.926,4.558,4.558,0,0,0,1.391.679,12.23,12.23,0,0,1,1.216.452,5.539,5.539,0,0,1,.985.583,2.318,2.318,0,0,1,.755.907,2.908,2.908,0,0,1,.254,1.254,2.709,2.709,0,0,1-.293,1.277,2.4,2.4,0,0,1-.784.89,3.884,3.884,0,0,1-1.048.5A3.935,3.935,0,0,1,252.3,271.724Z" transform="translate(-236.267 -261.464)" fill="#fff" stroke="#fff" stroke-miterlimit="10" stroke-width="0.2"/>
      <path id="Path_10499" data-name="Path 10499" d="M255.337,271.42h-1.26V261.6h3.348a3.1,3.1,0,0,1,2.159.83,2.851,2.851,0,0,1,0,4.182,3.094,3.094,0,0,1-2.159.832h-2.087Zm0-5.186h2.113a1.635,1.635,0,0,0,1.277-.534,1.692,1.692,0,0,0,0-2.361,1.631,1.631,0,0,0-1.277-.535h-2.113Z" transform="translate(-232.952 -261.379)" fill="#fff" stroke="#fff" stroke-miterlimit="10" stroke-width="0.2"/>
      <path id="Path_10500" data-name="Path 10500" d="M267.243,270.235a5.1,5.1,0,0,1-7.2,0,5.3,5.3,0,0,1,0-7.283,5.086,5.086,0,0,1,7.2.007,5.293,5.293,0,0,1,.007,7.276Zm-6.27-.822a3.776,3.776,0,0,0,5.335,0,4.185,4.185,0,0,0,0-5.638,3.772,3.772,0,0,0-5.335,0,4.189,4.189,0,0,0,0,5.638Z" transform="translate(-230.076 -261.464)" fill="#fff" stroke="#fff" stroke-miterlimit="10" stroke-width="0.2"/>
      <path id="Path_10501" data-name="Path 10501" d="M265.842,271.42V261.6h1.537l4.773,7.64h.054l-.054-1.892V261.6h1.262v9.822H272.1l-4.994-8.011h-.054l.054,1.894v6.117Z" transform="translate(-225.458 -261.379)" fill="#fff" stroke="#fff" stroke-miterlimit="10" stroke-width="0.2"/>
      <path id="Path_10502" data-name="Path 10502" d="M271.842,271.42V261.6H273.1v9.822Z" transform="translate(-221.637 -261.379)" fill="#fff" stroke="#fff" stroke-miterlimit="10" stroke-width="0.2"/>
      <path id="Path_10503" data-name="Path 10503" d="M273.987,271.42V261.6h3.552a2.883,2.883,0,0,1,2,.761,2.472,2.472,0,0,1,.843,1.914,2.144,2.144,0,0,1-.363,1.234,2.294,2.294,0,0,1-.967.81v.054a2.488,2.488,0,0,1,1.193.85,2.229,2.229,0,0,1,.466,1.4,2.577,2.577,0,0,1-.886,2,3.024,3.024,0,0,1-2.092.8Zm1.262-5.611h2.29a1.475,1.475,0,0,0,1.146-.473,1.464,1.464,0,0,0,.013-2.064,1.41,1.41,0,0,0-1.1-.466h-2.346Zm0,4.4h2.537a1.509,1.509,0,0,0,1.18-.509,1.628,1.628,0,0,0,.452-1.111,1.653,1.653,0,0,0-1.688-1.6h-2.482Z" transform="translate(-220.27 -261.379)" fill="#fff" stroke="#fff" stroke-miterlimit="10" stroke-width="0.2"/>
      <path id="Path_10504" data-name="Path 10504" d="M279.133,271.42V261.6h1.26v8.615h4.253v1.206Z" transform="translate(-216.993 -261.379)" fill="#fff" stroke="#fff" stroke-miterlimit="10" stroke-width="0.2"/>
      <path id="Path_10505" data-name="Path 10505" d="M289.207,262.8h-4.472v3.113h4.033v1.18h-4.033v3.115h4.472v1.206h-5.734V261.6h5.734Z" transform="translate(-214.228 -261.379)" fill="#fff" stroke="#fff" stroke-miterlimit="10" stroke-width="0.2"/>
      <path id="Path_10506" data-name="Path 10506" d="M292.969,271.724a3.66,3.66,0,0,1-2.09-.7,3.236,3.236,0,0,1-1.337-1.963l1.152-.466a2.636,2.636,0,0,0,.841,1.365,2.133,2.133,0,0,0,1.434.555,2.308,2.308,0,0,0,1.408-.431,1.384,1.384,0,0,0,.581-1.174,1.5,1.5,0,0,0-.581-1.269,5.978,5.978,0,0,0-1.845-.83,4.913,4.913,0,0,1-1.976-1.064,2.216,2.216,0,0,1-.673-1.666,2.439,2.439,0,0,1,.836-1.837,3.066,3.066,0,0,1,2.18-.782,3.16,3.16,0,0,1,2.031.624,2.89,2.89,0,0,1,1.015,1.365l-1.151.48a1.707,1.707,0,0,0-.611-.864,2.145,2.145,0,0,0-2.5.007,1.235,1.235,0,0,0-.514,1.008,1.143,1.143,0,0,0,.473.926,4.559,4.559,0,0,0,1.391.679,12.227,12.227,0,0,1,1.216.452,5.539,5.539,0,0,1,.985.583,2.318,2.318,0,0,1,.755.907,2.907,2.907,0,0,1,.254,1.254,2.71,2.71,0,0,1-.293,1.277,2.4,2.4,0,0,1-.784.89,3.884,3.884,0,0,1-1.048.5A3.935,3.935,0,0,1,292.969,271.724Z" transform="translate(-210.363 -261.464)" fill="#fff" stroke="#fff" stroke-miterlimit="10" stroke-width="0.2"/>
      <path id="Path_10507" data-name="Path 10507" d="M298.246,271.639a3.447,3.447,0,0,1-2.629-1.07,3.916,3.916,0,0,1-1.007-2.8V261.6h1.262v6.229a2.818,2.818,0,0,0,.611,1.886,2.52,2.52,0,0,0,3.524,0,2.818,2.818,0,0,0,.611-1.886V261.6h1.262v6.173a3.972,3.972,0,0,1-.981,2.8A3.433,3.433,0,0,1,298.246,271.639Z" transform="translate(-207.134 -261.379)" fill="#fff" stroke="#fff" stroke-miterlimit="10" stroke-width="0.2"/>
      <path id="Path_10508" data-name="Path 10508" d="M300.292,271.42V261.6h3.348a3.1,3.1,0,0,1,2.159.83,2.822,2.822,0,0,1,.239,3.909,2.905,2.905,0,0,1-1.673,1l-.028.041,2.758,3.993v.054H305.6l-2.647-3.978h-1.4v3.978Zm1.26-5.158h2.03a1.856,1.856,0,0,0,1.3-.494,1.61,1.61,0,0,0,.542-1.247,1.73,1.73,0,0,0-.478-1.18,1.634,1.634,0,0,0-1.277-.535h-2.113Z" transform="translate(-203.515 -261.379)" fill="#fff" stroke="#fff" stroke-miterlimit="10" stroke-width="0.2"/>
    </g>
  </g>
</svg>
